<mxfile host="app.diagrams.net" modified="2023-10-23T02:42:17.485Z" agent="Mozilla/5.0 (Macintosh; Intel Mac OS X 10_15_7) AppleWebKit/605.1.15 (KHTML, like Gecko) Version/17.0 Safari/605.1.15" etag="jwHZ6kuCdiM67oA7F36I" version="22.0.6" type="google">
  <diagram id="s0r4tMOKfsie9Xmo9wVz" name="Page-1">
    <mxGraphModel grid="1" page="1" gridSize="10" guides="1" tooltips="1" connect="1" arrows="1" fold="1" pageScale="1" pageWidth="850" pageHeight="1100" math="0" shadow="0">
      <root>
        <mxCell id="0" />
        <mxCell id="1" parent="0" />
        <mxCell id="s4sc9LMO3XYH5nvy0ZxB-34" style="edgeStyle=orthogonalEdgeStyle;rounded=0;orthogonalLoop=1;jettySize=auto;html=1;exitX=0.5;exitY=1;exitDx=0;exitDy=0;entryX=0.5;entryY=0;entryDx=0;entryDy=0;" edge="1" parent="1" source="s4sc9LMO3XYH5nvy0ZxB-3" target="J85HS0c1JScTjTQKyJ4_-6">
          <mxGeometry relative="1" as="geometry" />
        </mxCell>
        <mxCell id="s4sc9LMO3XYH5nvy0ZxB-46" style="edgeStyle=orthogonalEdgeStyle;rounded=0;orthogonalLoop=1;jettySize=auto;html=1;entryX=0.5;entryY=0;entryDx=0;entryDy=0;" edge="1" parent="1" source="s4sc9LMO3XYH5nvy0ZxB-5" target="s4sc9LMO3XYH5nvy0ZxB-1">
          <mxGeometry relative="1" as="geometry" />
        </mxCell>
        <mxCell id="s4sc9LMO3XYH5nvy0ZxB-5" value="Actor" style="shape=umlActor;verticalLabelPosition=bottom;verticalAlign=top;html=1;outlineConnect=0;noLabel=1;" vertex="1" parent="1">
          <mxGeometry x="400" y="140" width="30" height="60" as="geometry" />
        </mxCell>
        <mxCell id="J85HS0c1JScTjTQKyJ4_-2" style="edgeStyle=orthogonalEdgeStyle;rounded=0;orthogonalLoop=1;jettySize=auto;html=1;entryX=0.5;entryY=1;entryDx=0;entryDy=0;" edge="1" parent="1" source="s4sc9LMO3XYH5nvy0ZxB-6" target="J85HS0c1JScTjTQKyJ4_-1">
          <mxGeometry relative="1" as="geometry" />
        </mxCell>
        <mxCell id="J85HS0c1JScTjTQKyJ4_-3" style="edgeStyle=orthogonalEdgeStyle;rounded=0;orthogonalLoop=1;jettySize=auto;html=1;" edge="1" parent="1" source="s4sc9LMO3XYH5nvy0ZxB-8" target="J85HS0c1JScTjTQKyJ4_-1">
          <mxGeometry relative="1" as="geometry" />
        </mxCell>
        <mxCell id="s4sc9LMO3XYH5nvy0ZxB-35" style="edgeStyle=orthogonalEdgeStyle;rounded=0;orthogonalLoop=1;jettySize=auto;html=1;exitX=0.5;exitY=1;exitDx=0;exitDy=0;entryX=0.5;entryY=0;entryDx=0;entryDy=0;" edge="1" parent="1" source="s4sc9LMO3XYH5nvy0ZxB-9" target="J85HS0c1JScTjTQKyJ4_-9">
          <mxGeometry relative="1" as="geometry" />
        </mxCell>
        <mxCell id="s4sc9LMO3XYH5nvy0ZxB-33" style="edgeStyle=orthogonalEdgeStyle;rounded=0;orthogonalLoop=1;jettySize=auto;html=1;exitX=0.5;exitY=0;exitDx=0;exitDy=0;entryX=0.5;entryY=1;entryDx=0;entryDy=0;" edge="1" parent="1" source="s4sc9LMO3XYH5nvy0ZxB-11" target="J85HS0c1JScTjTQKyJ4_-6">
          <mxGeometry relative="1" as="geometry" />
        </mxCell>
        <mxCell id="s4sc9LMO3XYH5nvy0ZxB-53" style="edgeStyle=orthogonalEdgeStyle;rounded=0;orthogonalLoop=1;jettySize=auto;html=1;entryX=0.5;entryY=1;entryDx=0;entryDy=0;" edge="1" parent="1" source="s4sc9LMO3XYH5nvy0ZxB-14" target="J85HS0c1JScTjTQKyJ4_-9">
          <mxGeometry relative="1" as="geometry" />
        </mxCell>
        <mxCell id="s4sc9LMO3XYH5nvy0ZxB-37" style="edgeStyle=orthogonalEdgeStyle;rounded=0;orthogonalLoop=1;jettySize=auto;html=1;exitX=0.5;exitY=0;exitDx=0;exitDy=0;entryX=0.5;entryY=1;entryDx=0;entryDy=0;" edge="1" parent="1" source="s4sc9LMO3XYH5nvy0ZxB-16" target="J85HS0c1JScTjTQKyJ4_-13">
          <mxGeometry relative="1" as="geometry" />
        </mxCell>
        <mxCell id="s4sc9LMO3XYH5nvy0ZxB-36" style="edgeStyle=orthogonalEdgeStyle;rounded=0;orthogonalLoop=1;jettySize=auto;html=1;exitX=0.5;exitY=1;exitDx=0;exitDy=0;entryX=0.5;entryY=0;entryDx=0;entryDy=0;" edge="1" parent="1" source="s4sc9LMO3XYH5nvy0ZxB-17" target="J85HS0c1JScTjTQKyJ4_-13">
          <mxGeometry relative="1" as="geometry" />
        </mxCell>
        <mxCell id="s4sc9LMO3XYH5nvy0ZxB-45" style="edgeStyle=orthogonalEdgeStyle;rounded=0;orthogonalLoop=1;jettySize=auto;html=1;entryX=0.5;entryY=0;entryDx=0;entryDy=0;" edge="1" parent="1" source="s4sc9LMO3XYH5nvy0ZxB-38" target="s4sc9LMO3XYH5nvy0ZxB-39">
          <mxGeometry relative="1" as="geometry" />
        </mxCell>
        <mxCell id="s4sc9LMO3XYH5nvy0ZxB-38" value="Actor" style="shape=umlActor;verticalLabelPosition=bottom;verticalAlign=top;html=1;outlineConnect=0;noLabel=1;" vertex="1" parent="1">
          <mxGeometry x="1045" y="140" width="30" height="60" as="geometry" />
        </mxCell>
        <mxCell id="s4sc9LMO3XYH5nvy0ZxB-52" style="edgeStyle=orthogonalEdgeStyle;rounded=0;orthogonalLoop=1;jettySize=auto;html=1;entryX=0.5;entryY=1;entryDx=0;entryDy=0;" edge="1" parent="1" source="s4sc9LMO3XYH5nvy0ZxB-47" target="s4sc9LMO3XYH5nvy0ZxB-42">
          <mxGeometry relative="1" as="geometry" />
        </mxCell>
        <mxCell id="s4sc9LMO3XYH5nvy0ZxB-47" value="Actor" style="shape=umlActor;verticalLabelPosition=bottom;verticalAlign=top;html=1;outlineConnect=0;noLabel=1;" vertex="1" parent="1">
          <mxGeometry x="100" y="1280" width="30" height="60" as="geometry" />
        </mxCell>
        <mxCell id="s4sc9LMO3XYH5nvy0ZxB-51" style="edgeStyle=orthogonalEdgeStyle;rounded=0;orthogonalLoop=1;jettySize=auto;html=1;entryX=0.5;entryY=1;entryDx=0;entryDy=0;" edge="1" parent="1" source="s4sc9LMO3XYH5nvy0ZxB-48" target="s4sc9LMO3XYH5nvy0ZxB-43">
          <mxGeometry relative="1" as="geometry" />
        </mxCell>
        <mxCell id="s4sc9LMO3XYH5nvy0ZxB-48" value="Actor" style="shape=umlActor;verticalLabelPosition=bottom;verticalAlign=top;html=1;outlineConnect=0;noLabel=1;" vertex="1" parent="1">
          <mxGeometry x="437.5" y="1280" width="30" height="60" as="geometry" />
        </mxCell>
        <mxCell id="s4sc9LMO3XYH5nvy0ZxB-50" style="edgeStyle=orthogonalEdgeStyle;rounded=0;orthogonalLoop=1;jettySize=auto;html=1;entryX=0.5;entryY=1;entryDx=0;entryDy=0;" edge="1" parent="1" source="s4sc9LMO3XYH5nvy0ZxB-49" target="s4sc9LMO3XYH5nvy0ZxB-44">
          <mxGeometry relative="1" as="geometry" />
        </mxCell>
        <mxCell id="s4sc9LMO3XYH5nvy0ZxB-49" value="Actor" style="shape=umlActor;verticalLabelPosition=bottom;verticalAlign=top;html=1;outlineConnect=0;noLabel=1;" vertex="1" parent="1">
          <mxGeometry x="735" y="1280" width="30" height="60" as="geometry" />
        </mxCell>
        <mxCell id="J85HS0c1JScTjTQKyJ4_-4" style="edgeStyle=orthogonalEdgeStyle;rounded=0;orthogonalLoop=1;jettySize=auto;html=1;entryX=1;entryY=0.5;entryDx=0;entryDy=0;" edge="1" parent="1" source="J85HS0c1JScTjTQKyJ4_-1" target="s4sc9LMO3XYH5nvy0ZxB-4">
          <mxGeometry relative="1" as="geometry" />
        </mxCell>
        <mxCell id="J85HS0c1JScTjTQKyJ4_-5" style="edgeStyle=orthogonalEdgeStyle;rounded=0;orthogonalLoop=1;jettySize=auto;html=1;entryX=0;entryY=0.5;entryDx=0;entryDy=0;" edge="1" parent="1" source="J85HS0c1JScTjTQKyJ4_-1" target="s4sc9LMO3XYH5nvy0ZxB-3">
          <mxGeometry relative="1" as="geometry">
            <Array as="points">
              <mxPoint x="190" y="790" />
              <mxPoint x="190" y="610" />
            </Array>
          </mxGeometry>
        </mxCell>
        <mxCell id="J85HS0c1JScTjTQKyJ4_-1" value="System found matching policy requirements&amp;nbsp;&lt;span style=&quot;font-size: 12.000001px;&quot;&gt;and created new order to fill for remaining amount&lt;/span&gt;" style="rounded=1;whiteSpace=wrap;html=1;absoluteArcSize=1;arcSize=14;strokeWidth=2;" vertex="1" parent="1">
          <mxGeometry x="50" y="690" width="130" height="200" as="geometry" />
        </mxCell>
        <mxCell id="J85HS0c1JScTjTQKyJ4_-7" style="edgeStyle=orthogonalEdgeStyle;rounded=0;orthogonalLoop=1;jettySize=auto;html=1;entryX=1;entryY=0.5;entryDx=0;entryDy=0;" edge="1" parent="1" source="J85HS0c1JScTjTQKyJ4_-6" target="s4sc9LMO3XYH5nvy0ZxB-10">
          <mxGeometry relative="1" as="geometry" />
        </mxCell>
        <mxCell id="J85HS0c1JScTjTQKyJ4_-8" style="edgeStyle=orthogonalEdgeStyle;rounded=0;orthogonalLoop=1;jettySize=auto;html=1;entryX=0;entryY=0.5;entryDx=0;entryDy=0;" edge="1" parent="1" source="J85HS0c1JScTjTQKyJ4_-6" target="s4sc9LMO3XYH5nvy0ZxB-9">
          <mxGeometry relative="1" as="geometry">
            <Array as="points">
              <mxPoint x="540" y="805" />
              <mxPoint x="540" y="610" />
            </Array>
          </mxGeometry>
        </mxCell>
        <mxCell id="J85HS0c1JScTjTQKyJ4_-6" value="System found matching policy requirements&amp;nbsp;and created new order to fill for remaining amount" style="rounded=1;whiteSpace=wrap;html=1;absoluteArcSize=1;arcSize=14;strokeWidth=2;" vertex="1" parent="1">
          <mxGeometry x="385" y="720" width="135" height="170" as="geometry" />
        </mxCell>
        <mxCell id="J85HS0c1JScTjTQKyJ4_-11" style="edgeStyle=orthogonalEdgeStyle;rounded=0;orthogonalLoop=1;jettySize=auto;html=1;entryX=0;entryY=0.5;entryDx=0;entryDy=0;exitX=1.014;exitY=0.557;exitDx=0;exitDy=0;exitPerimeter=0;" edge="1" parent="1" source="J85HS0c1JScTjTQKyJ4_-9" target="s4sc9LMO3XYH5nvy0ZxB-16">
          <mxGeometry relative="1" as="geometry">
            <Array as="points">
              <mxPoint x="840" y="797" />
              <mxPoint x="840" y="980" />
            </Array>
          </mxGeometry>
        </mxCell>
        <mxCell id="J85HS0c1JScTjTQKyJ4_-12" value="" style="edgeStyle=orthogonalEdgeStyle;rounded=0;orthogonalLoop=1;jettySize=auto;html=1;" edge="1" parent="1" source="J85HS0c1JScTjTQKyJ4_-9" target="s4sc9LMO3XYH5nvy0ZxB-13">
          <mxGeometry relative="1" as="geometry" />
        </mxCell>
        <mxCell id="J85HS0c1JScTjTQKyJ4_-9" value="System found matching policy requirements&amp;nbsp;and created new order to fill for remaining amount" style="rounded=1;whiteSpace=wrap;html=1;absoluteArcSize=1;arcSize=14;strokeWidth=2;" vertex="1" parent="1">
          <mxGeometry x="680" y="680" width="140" height="210" as="geometry" />
        </mxCell>
        <mxCell id="J85HS0c1JScTjTQKyJ4_-14" style="edgeStyle=orthogonalEdgeStyle;rounded=0;orthogonalLoop=1;jettySize=auto;html=1;entryX=0;entryY=0.5;entryDx=0;entryDy=0;" edge="1" parent="1" source="J85HS0c1JScTjTQKyJ4_-13" target="s4sc9LMO3XYH5nvy0ZxB-25">
          <mxGeometry relative="1" as="geometry" />
        </mxCell>
        <mxCell id="J85HS0c1JScTjTQKyJ4_-15" value="" style="edgeStyle=orthogonalEdgeStyle;rounded=0;orthogonalLoop=1;jettySize=auto;html=1;" edge="1" parent="1" source="J85HS0c1JScTjTQKyJ4_-13" target="s4sc9LMO3XYH5nvy0ZxB-18">
          <mxGeometry relative="1" as="geometry" />
        </mxCell>
        <mxCell id="J85HS0c1JScTjTQKyJ4_-13" value="System found matching policy requirements&amp;nbsp;and created new order to fill for remaining amount" style="rounded=1;whiteSpace=wrap;html=1;absoluteArcSize=1;arcSize=14;strokeWidth=2;" vertex="1" parent="1">
          <mxGeometry x="990" y="710" width="140" height="180" as="geometry" />
        </mxCell>
        <mxCell id="J85HS0c1JScTjTQKyJ4_-17" value="Insured 1" style="text;html=1;strokeColor=none;fillColor=none;align=center;verticalAlign=middle;whiteSpace=wrap;rounded=0;" vertex="1" parent="1">
          <mxGeometry x="85" y="1340" width="60" height="30" as="geometry" />
        </mxCell>
        <mxCell id="J85HS0c1JScTjTQKyJ4_-18" value="Insured 2 through platform bot" style="text;html=1;strokeColor=none;fillColor=none;align=center;verticalAlign=middle;whiteSpace=wrap;rounded=0;" vertex="1" parent="1">
          <mxGeometry x="422.5" y="1340" width="60" height="60" as="geometry" />
        </mxCell>
        <mxCell id="J85HS0c1JScTjTQKyJ4_-19" value="Insured 3 through social media using platform API" style="text;html=1;strokeColor=none;fillColor=none;align=center;verticalAlign=middle;whiteSpace=wrap;rounded=0;" vertex="1" parent="1">
          <mxGeometry x="705" y="1340" width="90" height="60" as="geometry" />
        </mxCell>
        <mxCell id="J85HS0c1JScTjTQKyJ4_-20" value="Insurer 1" style="text;html=1;strokeColor=none;fillColor=none;align=center;verticalAlign=middle;whiteSpace=wrap;rounded=0;" vertex="1" parent="1">
          <mxGeometry x="385" y="110" width="60" height="30" as="geometry" />
        </mxCell>
        <mxCell id="J85HS0c1JScTjTQKyJ4_-21" value="Insurer 2" style="text;html=1;strokeColor=none;fillColor=none;align=center;verticalAlign=middle;whiteSpace=wrap;rounded=0;" vertex="1" parent="1">
          <mxGeometry x="1030" y="110" width="60" height="30" as="geometry" />
        </mxCell>
        <mxCell id="J85HS0c1JScTjTQKyJ4_-23" value="Peril" style="swimlane;whiteSpace=wrap;html=1;" vertex="1" parent="1">
          <mxGeometry x="-210" y="220" width="1590" height="1040" as="geometry" />
        </mxCell>
        <mxCell id="J85HS0c1JScTjTQKyJ4_-24" value="Coverage Period 10/01/2023-11/01/2023" style="swimlane;whiteSpace=wrap;html=1;" vertex="1" parent="J85HS0c1JScTjTQKyJ4_-23">
          <mxGeometry x="30" y="40" width="1460" height="980" as="geometry" />
        </mxCell>
        <mxCell id="J85HS0c1JScTjTQKyJ4_-25" value="attributes" style="swimlane;fontStyle=0;childLayout=stackLayout;horizontal=1;startSize=30;horizontalStack=0;resizeParent=1;resizeParentMax=0;resizeLast=0;collapsible=1;marginBottom=0;whiteSpace=wrap;html=1;" vertex="1" parent="J85HS0c1JScTjTQKyJ4_-24">
          <mxGeometry x="20" y="40" width="140" height="180" as="geometry" />
        </mxCell>
        <mxCell id="J85HS0c1JScTjTQKyJ4_-26" value="Peril: Earthquake" style="text;strokeColor=none;fillColor=none;align=left;verticalAlign=middle;spacingLeft=4;spacingRight=4;overflow=hidden;points=[[0,0.5],[1,0.5]];portConstraint=eastwest;rotatable=0;whiteSpace=wrap;html=1;" vertex="1" parent="J85HS0c1JScTjTQKyJ4_-25">
          <mxGeometry y="30" width="140" height="30" as="geometry" />
        </mxCell>
        <mxCell id="J85HS0c1JScTjTQKyJ4_-27" value="Magnitude: 7.0+" style="text;strokeColor=none;fillColor=none;align=left;verticalAlign=middle;spacingLeft=4;spacingRight=4;overflow=hidden;points=[[0,0.5],[1,0.5]];portConstraint=eastwest;rotatable=0;whiteSpace=wrap;html=1;" vertex="1" parent="J85HS0c1JScTjTQKyJ4_-25">
          <mxGeometry y="60" width="140" height="30" as="geometry" />
        </mxCell>
        <mxCell id="XfhPkhzmz0XAJnmI7ZIs-1" value="Coverage start: 10/01/2023" style="text;strokeColor=none;fillColor=none;align=left;verticalAlign=middle;spacingLeft=4;spacingRight=4;overflow=hidden;points=[[0,0.5],[1,0.5]];portConstraint=eastwest;rotatable=0;whiteSpace=wrap;html=1;" vertex="1" parent="J85HS0c1JScTjTQKyJ4_-25">
          <mxGeometry y="90" width="140" height="30" as="geometry" />
        </mxCell>
        <mxCell id="XfhPkhzmz0XAJnmI7ZIs-2" value="Coverage end: 11/01/2023" style="text;strokeColor=none;fillColor=none;align=left;verticalAlign=middle;spacingLeft=4;spacingRight=4;overflow=hidden;points=[[0,0.5],[1,0.5]];portConstraint=eastwest;rotatable=0;whiteSpace=wrap;html=1;" vertex="1" parent="J85HS0c1JScTjTQKyJ4_-25">
          <mxGeometry y="120" width="140" height="30" as="geometry" />
        </mxCell>
        <mxCell id="YUTjyQ3uEIUW-UUIPs4p-1" value="City: San Francisco" style="text;strokeColor=none;fillColor=none;align=left;verticalAlign=middle;spacingLeft=4;spacingRight=4;overflow=hidden;points=[[0,0.5],[1,0.5]];portConstraint=eastwest;rotatable=0;whiteSpace=wrap;html=1;" vertex="1" parent="J85HS0c1JScTjTQKyJ4_-25">
          <mxGeometry y="150" width="140" height="30" as="geometry" />
        </mxCell>
        <mxCell id="s4sc9LMO3XYH5nvy0ZxB-25" value="Order to Fill" style="rounded=1;whiteSpace=wrap;html=1;absoluteArcSize=1;arcSize=14;strokeWidth=2;" vertex="1" parent="J85HS0c1JScTjTQKyJ4_-24">
          <mxGeometry x="1350" y="670" width="100" height="100" as="geometry" />
        </mxCell>
        <mxCell id="s4sc9LMO3XYH5nvy0ZxB-16" value="Order to Fill" style="rounded=1;whiteSpace=wrap;html=1;absoluteArcSize=1;arcSize=14;strokeWidth=2;" vertex="1" parent="J85HS0c1JScTjTQKyJ4_-24">
          <mxGeometry x="1190" y="670" width="100" height="100" as="geometry" />
        </mxCell>
        <mxCell id="s4sc9LMO3XYH5nvy0ZxB-18" value="Partial amount matched policy created" style="rounded=1;whiteSpace=wrap;html=1;absoluteArcSize=1;arcSize=14;strokeWidth=2;" vertex="1" parent="J85HS0c1JScTjTQKyJ4_-24">
          <mxGeometry x="1030" y="455" width="100" height="170" as="geometry" />
        </mxCell>
        <mxCell id="s4sc9LMO3XYH5nvy0ZxB-13" value="Partial amount matched policy created" style="rounded=1;whiteSpace=wrap;html=1;absoluteArcSize=1;arcSize=14;strokeWidth=2;" vertex="1" parent="J85HS0c1JScTjTQKyJ4_-24">
          <mxGeometry x="730" y="460" width="100" height="130" as="geometry" />
        </mxCell>
        <mxCell id="s4sc9LMO3XYH5nvy0ZxB-10" value="Partial amount matched policy created" style="rounded=1;whiteSpace=wrap;html=1;absoluteArcSize=1;arcSize=14;strokeWidth=2;" vertex="1" parent="J85HS0c1JScTjTQKyJ4_-24">
          <mxGeometry x="420" y="480" width="100" height="130" as="geometry" />
        </mxCell>
        <mxCell id="s4sc9LMO3XYH5nvy0ZxB-4" value="Partial amount matched policy created" style="rounded=1;whiteSpace=wrap;html=1;absoluteArcSize=1;arcSize=14;strokeWidth=2;" vertex="1" parent="J85HS0c1JScTjTQKyJ4_-24">
          <mxGeometry x="70" y="460" width="100" height="140" as="geometry" />
        </mxCell>
        <mxCell id="s4sc9LMO3XYH5nvy0ZxB-8" value="Order to Fill" style="rounded=1;whiteSpace=wrap;html=1;absoluteArcSize=1;arcSize=14;strokeWidth=2;" vertex="1" parent="J85HS0c1JScTjTQKyJ4_-24">
          <mxGeometry x="245" y="240" width="100" height="100" as="geometry" />
        </mxCell>
        <mxCell id="s4sc9LMO3XYH5nvy0ZxB-3" value="New Order to Fill" style="rounded=1;whiteSpace=wrap;html=1;absoluteArcSize=1;arcSize=14;strokeWidth=2;" vertex="1" parent="J85HS0c1JScTjTQKyJ4_-24">
          <mxGeometry x="582.5" y="300" width="100" height="100" as="geometry" />
        </mxCell>
        <mxCell id="s4sc9LMO3XYH5nvy0ZxB-6" value="Order to fill" style="rounded=1;whiteSpace=wrap;html=1;absoluteArcSize=1;arcSize=14;strokeWidth=2;" vertex="1" parent="J85HS0c1JScTjTQKyJ4_-24">
          <mxGeometry x="245" y="670" width="100" height="100" as="geometry" />
        </mxCell>
        <mxCell id="s4sc9LMO3XYH5nvy0ZxB-42" value="Places policy requirements" style="rounded=1;whiteSpace=wrap;html=1;absoluteArcSize=1;arcSize=14;strokeWidth=2;" vertex="1" parent="J85HS0c1JScTjTQKyJ4_-24">
          <mxGeometry x="245" y="860" width="100" height="100" as="geometry" />
        </mxCell>
        <mxCell id="s4sc9LMO3XYH5nvy0ZxB-26" style="edgeStyle=orthogonalEdgeStyle;rounded=0;orthogonalLoop=1;jettySize=auto;html=1;exitX=0.5;exitY=0;exitDx=0;exitDy=0;entryX=0.5;entryY=1;entryDx=0;entryDy=0;" edge="1" parent="J85HS0c1JScTjTQKyJ4_-24" source="s4sc9LMO3XYH5nvy0ZxB-42" target="s4sc9LMO3XYH5nvy0ZxB-6">
          <mxGeometry relative="1" as="geometry">
            <mxPoint x="280" y="840" as="sourcePoint" />
          </mxGeometry>
        </mxCell>
        <mxCell id="s4sc9LMO3XYH5nvy0ZxB-11" value="Order to fill" style="rounded=1;whiteSpace=wrap;html=1;absoluteArcSize=1;arcSize=14;strokeWidth=2;" vertex="1" parent="J85HS0c1JScTjTQKyJ4_-24">
          <mxGeometry x="582.5" y="670" width="100" height="100" as="geometry" />
        </mxCell>
        <mxCell id="s4sc9LMO3XYH5nvy0ZxB-43" value="Places policy requirements" style="rounded=1;whiteSpace=wrap;html=1;absoluteArcSize=1;arcSize=14;strokeWidth=2;" vertex="1" parent="J85HS0c1JScTjTQKyJ4_-24">
          <mxGeometry x="582.5" y="860" width="100" height="100" as="geometry" />
        </mxCell>
        <mxCell id="s4sc9LMO3XYH5nvy0ZxB-27" style="edgeStyle=orthogonalEdgeStyle;rounded=0;orthogonalLoop=1;jettySize=auto;html=1;entryX=0.5;entryY=1;entryDx=0;entryDy=0;" edge="1" parent="J85HS0c1JScTjTQKyJ4_-24" source="s4sc9LMO3XYH5nvy0ZxB-43" target="s4sc9LMO3XYH5nvy0ZxB-11">
          <mxGeometry relative="1" as="geometry">
            <mxPoint x="595" y="840" as="sourcePoint" />
          </mxGeometry>
        </mxCell>
        <mxCell id="s4sc9LMO3XYH5nvy0ZxB-14" value="Order to Fill" style="rounded=1;whiteSpace=wrap;html=1;absoluteArcSize=1;arcSize=14;strokeWidth=2;" vertex="1" parent="J85HS0c1JScTjTQKyJ4_-24">
          <mxGeometry x="880" y="670" width="100" height="100" as="geometry" />
        </mxCell>
        <mxCell id="s4sc9LMO3XYH5nvy0ZxB-44" value="Places policy requirements" style="rounded=1;whiteSpace=wrap;html=1;absoluteArcSize=1;arcSize=14;strokeWidth=2;" vertex="1" parent="J85HS0c1JScTjTQKyJ4_-24">
          <mxGeometry x="880" y="860" width="100" height="100" as="geometry" />
        </mxCell>
        <mxCell id="s4sc9LMO3XYH5nvy0ZxB-28" style="edgeStyle=orthogonalEdgeStyle;rounded=0;orthogonalLoop=1;jettySize=auto;html=1;entryX=0.5;entryY=1;entryDx=0;entryDy=0;exitX=0.5;exitY=0;exitDx=0;exitDy=0;" edge="1" parent="J85HS0c1JScTjTQKyJ4_-24" source="s4sc9LMO3XYH5nvy0ZxB-44" target="s4sc9LMO3XYH5nvy0ZxB-14">
          <mxGeometry relative="1" as="geometry">
            <mxPoint x="850" y="850" as="sourcePoint" />
          </mxGeometry>
        </mxCell>
        <mxCell id="s4sc9LMO3XYH5nvy0ZxB-17" value="Order to Fill" style="rounded=1;whiteSpace=wrap;html=1;absoluteArcSize=1;arcSize=14;strokeWidth=2;" vertex="1" parent="J85HS0c1JScTjTQKyJ4_-24">
          <mxGeometry x="1190" y="300" width="100" height="100" as="geometry" />
        </mxCell>
        <mxCell id="s4sc9LMO3XYH5nvy0ZxB-39" value="Places policy requirements" style="rounded=1;whiteSpace=wrap;html=1;absoluteArcSize=1;arcSize=14;strokeWidth=2;" vertex="1" parent="J85HS0c1JScTjTQKyJ4_-24">
          <mxGeometry x="1190" y="140" width="100" height="100" as="geometry" />
        </mxCell>
        <mxCell id="s4sc9LMO3XYH5nvy0ZxB-41" style="edgeStyle=orthogonalEdgeStyle;rounded=0;orthogonalLoop=1;jettySize=auto;html=1;exitX=0.5;exitY=1;exitDx=0;exitDy=0;" edge="1" parent="J85HS0c1JScTjTQKyJ4_-24" source="s4sc9LMO3XYH5nvy0ZxB-39" target="s4sc9LMO3XYH5nvy0ZxB-17">
          <mxGeometry relative="1" as="geometry" />
        </mxCell>
        <mxCell id="s4sc9LMO3XYH5nvy0ZxB-1" value="Places policy requirements" style="rounded=1;whiteSpace=wrap;html=1;absoluteArcSize=1;arcSize=14;strokeWidth=2;" vertex="1" parent="J85HS0c1JScTjTQKyJ4_-24">
          <mxGeometry x="245" y="80" width="100" height="100" as="geometry" />
        </mxCell>
        <mxCell id="s4sc9LMO3XYH5nvy0ZxB-21" style="edgeStyle=orthogonalEdgeStyle;rounded=0;orthogonalLoop=1;jettySize=auto;html=1;entryX=0.5;entryY=0;entryDx=0;entryDy=0;exitX=0.5;exitY=1;exitDx=0;exitDy=0;" edge="1" parent="J85HS0c1JScTjTQKyJ4_-24" source="s4sc9LMO3XYH5nvy0ZxB-1" target="s4sc9LMO3XYH5nvy0ZxB-8">
          <mxGeometry relative="1" as="geometry">
            <mxPoint x="540" y="190" as="sourcePoint" />
          </mxGeometry>
        </mxCell>
        <mxCell id="s4sc9LMO3XYH5nvy0ZxB-9" value="New order to fill created" style="rounded=1;whiteSpace=wrap;html=1;absoluteArcSize=1;arcSize=14;strokeWidth=2;" vertex="1" parent="J85HS0c1JScTjTQKyJ4_-24">
          <mxGeometry x="880" y="300" width="100" height="100" as="geometry" />
        </mxCell>
        <mxCell id="J85HS0c1JScTjTQKyJ4_-30" value="User Interaction" style="text;html=1;strokeColor=none;fillColor=none;align=center;verticalAlign=middle;whiteSpace=wrap;rounded=0;fontStyle=1" vertex="1" parent="1">
          <mxGeometry x="385" y="80" width="95" height="30" as="geometry" />
        </mxCell>
      </root>
    </mxGraphModel>
  </diagram>
</mxfile>
